# xmcd CD database file
#
# Track frame offsets:
#	150
#	23188
#	44152
#	77691
#	98806
#	140950
#	154646
#	182820
#
# Disc length: 2576 seconds
#
# Revision: 0
# Processed by: cddbd v1.5.1PL0 Copyright (c) Steve Scherf et al.
# Submitted via: CDex 1.50
#
DISCID=6a0a0e08
DTITLE=The Sheryl Bailey 3 - The Power of 3
DYEAR=2002
DGENRE=Jazz
TTITLE0=Starbrite
TTITLE1=Ray's Way
TTITLE2=Death Toll
TTITLE3=The Spring
TTITLE4=(Until You) Return to Me
TTITLE5=Something Blue
TTITLE6=The Wesenback
TTITLE7=Arpeggio
EXTD=YEAR: 2002
EXTT0=
EXTT1=
EXTT2=
EXTT3=
EXTT4=
EXTT5=
EXTT6=
EXTT7=
PLAYORDER=
